<svg width="18" height="18" viewBox="0 0 18 18" fill="none" xmlns="http://www.w3.org/2000/svg">
<path d="M12.6216 17.5459C14.4711 15.6964 14.9848 13.0149 14.1612 10.703L16.9089 7.95525C17.1592 7.705 17.3133 7.37521 17.3415 7.0222L17.8105 1.5018C17.8304 1.26978 17.7426 1.05599 17.5934 0.906835C17.4442 0.75768 17.2305 0.669844 16.9984 0.689731L11.478 1.15874C11.1257 1.18841 10.7953 1.34161 10.545 1.59129L7.79721 4.33906C5.4853 3.5154 2.80382 4.02915 0.95429 5.87868L3.54794 8.47232C3.39049 8.55353 3.24134 8.66291 3.0955 8.80875C2.72924 9.17501 2.49722 9.65894 2.44253 10.171C2.39743 10.5895 2.46913 11.0123 2.64969 11.3925C2.13759 12.6702 2.43093 14.117 3.40707 15.0932C3.88934 15.5754 4.49922 15.9003 5.1671 16.0312C5.82007 16.1605 6.48961 16.0975 7.10612 15.8489C7.48558 16.0299 7.9078 16.1022 8.32588 16.0577C8.84086 16.0007 9.3212 15.7705 9.68816 15.4047C9.82738 15.2655 9.94173 15.1147 10.0312 14.9589L12.6216 17.5459ZM13.1519 5.34835C13.3558 5.56077 13.4683 5.84465 13.4653 6.13909C13.4623 6.43353 13.344 6.71506 13.1358 6.92327C12.9276 7.13148 12.6461 7.24978 12.3516 7.25278C12.0572 7.25579 11.7733 7.14326 11.5609 6.93934C11.357 6.72692 11.2444 6.44304 11.2475 6.1486C11.2505 5.85416 11.3688 5.57263 11.577 5.36442C11.7852 5.15621 12.0667 5.03791 12.3611 5.03491C12.6556 5.0319 12.9395 5.14443 13.1519 5.34835ZM7.91321 14.4352C7.77732 14.3988 7.65799 14.3192 7.57347 14.2082L7.29008 13.8452L6.92216 14.1203C6.20456 14.659 5.18367 14.586 4.54893 13.9513C3.9142 13.3166 3.84127 12.2957 4.37989 11.5781L4.65666 11.2085L4.29206 10.9268C4.1821 10.8402 4.10304 10.7205 4.06667 10.5854C4.00535 10.3583 4.06998 10.1147 4.23736 9.94731C4.41304 9.77163 4.65666 9.72357 4.87376 9.79484L8.70705 13.6281C8.77832 13.8485 8.7286 14.0905 8.55458 14.2645C8.38388 14.4319 8.1386 14.4982 7.91321 14.4352Z" fill="white"/>
</svg>
